<!-- Generator: Adobe Illustrator 21.0.0, SVG Export Plug-In  -->
<svg version="1.1"
	 xmlns="http://www.w3.org/2000/svg" xmlns:xlink="http://www.w3.org/1999/xlink" xmlns:a="http://ns.adobe.com/AdobeSVGViewerExtensions/3.0/"
	 x="0px" y="0px" width="27.187px" height="60.767px" viewBox="0 0 27.187 60.767"
	 style="enable-background:new 0 0 27.187 60.767;" xml:space="preserve">
<style type="text/css">
	.st0{fill-rule:evenodd;clip-rule:evenodd;fill:#FFFFFF;}
</style>
<defs>
</defs>
<g>
	<g>
		<line class="st0" x1="6.565" y1="37.627" x2="6.56" y2="37.661"/>
		<line class="st0" x1="6.565" y1="37.627" x2="6.56" y2="37.661"/>
	</g>
	<g>
		<path class="st0" d="M16.234,45.872c0,0-1.886-0.715-3.152-0.855c-0.434-0.048-0.723-0.056-1.118-0.064
			c-0.41,0.002-0.742-0.027-1.127,0.015c-0.264,0.004-2.353-0.576-3.273-1.879c-0.76-1.076-1.18-2.394-1.216-3.986
			c0.022-2.106,0.797-3.881,2.326-5.325c1.529-1.444,3.359-1.825,6.131-1.885c4.334,0.314,5.078-1.802,5.671-2.37
			c0.064-0.062,0.378,0.055,0.37,0.157c-0.065,0.772-0.88,2.117-0.678,5.391c0.058,0.938,0.257,2.062,0.425,3.388l-0.932,0.213
			c-0.317-1.409-0.875-2.683-1.672-3.82c-0.797-1.137-1.751-1.726-3.561-1.793c-1.634,0.05-2.833,0.536-3.598,1.46
			c-0.765,0.923-1.143,1.986-1.135,3.186c0.015,1.518,0.497,2.745,1.444,3.681c0.948,0.937,1.921,1.799,3.621,2.613
			c1.152,0.566,2.117,1.104,3.408,1.916c3.508,2.209,3.893,5.364,3.921,6.953c-0.04,2.293-0.867,3.849-2.563,5.358
			c-0.818,0.729-1.914,1.458-3.357,1.841l0.751-2.098c0.136-0.117,0.177-0.154,0.334-0.316c0.885-0.908,1.333-2.15,1.343-3.724
			c-0.022-2.981-1.173-4.086-1.523-4.35C17.035,49.26,16.234,45.872,16.234,45.872z"/>
	</g>
	<g>
		<path class="st0" d="M16.067,47.821L15.784,46.2c0,0-1.661-0.614-2.774-0.745c-0.468-0.055-0.78-0.06-1.206-0.069
			c-0.406,0.002-0.708,0.03-1.082,0.072c-1.179,0.13-2.25,0.434-3.214,0.914c-1.304,0.648-2.328,1.562-3.071,2.74
			C3.695,50.29,3.316,51.68,3.302,53.28c-0.004,1.225,0.278,2.405,0.847,3.54c0.569,1.135,1.451,2.07,2.647,2.805
			c1.195,0.735,2.729,1.116,4.603,1.142c0.846-0.016,1.665-0.097,2.455-0.242c0.79-0.146,1.359-0.26,1.708-0.344
			c0.212-0.416,0.439-0.963,0.679-1.64c0.241-0.677,0.444-1.292,0.611-1.844l-0.656-0.226c-0.545,1.125-1.175,1.986-1.889,2.582
			c-0.714,0.596-1.638,0.897-2.771,0.902c-1.751-0.033-2.778-0.703-3.862-1.989c-1.084-1.286-1.642-3.003-1.674-5.151
			c0.002-1.165,0.222-2.247,0.662-3.248c0.44-1,1.089-1.81,1.949-2.428c0.86-0.618,1.529-0.925,2.79-0.943
			c1.215-0.009,2.179,0.253,2.893,0.786c0.714,0.534,1.22,1.396,1.519,2.585l0.585-0.154C16.373,49.226,16.106,48.113,16.067,47.821
			z"/>
	</g>
	<g>
		<path class="st0" d="M4.355,48.477c0.982-1.787,3.732-3.158,4.549-3.356c-0.596-0.287-3.047-1.899-2.915-5.653
			C5.412,43.378,4.271,48.629,4.355,48.477z"/>
	</g>
	<g>
		<path class="st0" d="M3.273,55.874l0.001-0.099l-0.016-0.074c-0.604,3.352-0.733,3.106-0.84,3.222
			C2.07,59.303,1.264,59.517,0,59.565v0.911h7.358V60.32C6.392,60.27,3.516,58.502,3.273,55.874z"/>
	</g>
	<g>
		<path class="st0" d="M20.222,29.118l0.25-0.351c0.607-0.945,0.92-2.125,0.939-3.538c-0.008-1.06-0.196-1.972-0.567-2.734
			c-0.37-0.762-1.623-3.211-3.512-3.211c-1.381,0-2.369-0.003-3.533,0H5.73v0.911c0.794,0.037,2.392-0.269,2.768,0.864
			c0.242,0.731-0.082,2.06-0.088,2.571c0,0-1.017,5.984-2.109,13.431c0.29-1.483,1.096-2.75,2.26-3.849
			c0.524-0.495,1.082-0.866,1.705-1.141c1.187-0.527,2.605-0.705,4.426-0.745C18.679,31.615,19.634,29.845,20.222,29.118z
			 M11.452,22.254c-0.001-0.467,0-1.815,0-1.815c0.808-0.17,1.653-0.111,2.115-0.113c1.379-0.011,2.31,0.387,3.248,1.193
			c0.937,0.806,1.425,2.087,1.463,3.841c-0.019,1.372-0.271,2.445-0.757,3.218c-0.486,0.773-1.089,1.315-1.81,1.627
			c-0.722,0.312-4.645,0.335-4.863,0.247L11.452,22.254z"/>
	</g>
	<g>
		<polygon class="st0" points="13.47,4.058 13.508,3.945 13.961,3.945 13.999,4.058 14.244,3.775 13.98,2.529 13.433,2.529 
			13.187,3.775 		"/>
	</g>
	<g>
		<path class="st0" d="M13.489,2.378h0.453c0,0-0.1-0.264-0.227-0.264C13.589,2.114,13.489,2.378,13.489,2.378z"/>
	</g>
	<g>
		<path class="st0" d="M13.706,0l-0.094,2.039c0,0,0.052-0.047,0.118-0.047c0.039,0,0.09,0.047,0.09,0.047L13.706,0z"/>
	</g>
	<g>
		<path class="st0" d="M13.29,12.715l-1.133,5.059h3.171l-1.057-5.059H13.29z M12.003,11.545h-0.381v0.604l0.264,0.566l-1.17,5.059
			h-0.604v0.415l0.258,0.775l6.747-0.002l0.257-0.774v-0.415h-0.604l-1.17-5.059l0.264-0.566v-0.604h-0.2H12.003z"/>
	</g>
	<g>
		<polygon class="st0" points="14.028,11.356 15.374,11.356 13.902,4.107 13.779,4.107 13.585,4.107 12.113,11.356 13.487,11.356 
			13.743,10.129 		"/>
	</g>
	<g>
		<path class="st0" d="M18.92,60.476h-0.718v-0.738c2.032-0.91,3.923-2.983,4.373-5.632c0.397-2.341-0.541-4.639-1.276-6.019
			c-0.515-2.839-1.002-5.27-1.548-8.985l0.944-0.189c1.569,10.658,3.838,19.528,4.037,19.745c0.348,0.379,1.192,0.782,2.456,0.83
			v0.986H18.92z"/>
	</g>
</g>
</svg>