<!-- Generator: Adobe Illustrator 22.0.1, SVG Export Plug-In  -->
<svg version="1.1"
	 xmlns="http://www.w3.org/2000/svg" xmlns:xlink="http://www.w3.org/1999/xlink" xmlns:a="http://ns.adobe.com/AdobeSVGViewerExtensions/3.0/"
	 x="0px" y="0px" width="140.232px" height="34.126px" viewBox="0 0 140.232 34.126"
	 style="enable-background:new 0 0 140.232 34.126;" xml:space="preserve">
<style type="text/css">
	.st0{fill-rule:evenodd;clip-rule:evenodd;fill:#FFFFFF;}
</style>
<defs>
</defs>
<g>
	<g>
		<path class="st0" d="M28.617,17.035c-3.994,1.607-9.69,1.61-13.693-0.004c-1.242-0.499-2.652,0.102-3.152,1.342
			c-0.5,1.241,0.101,2.652,1.341,3.152c5.165,2.082,12.16,2.077,17.312,0.004c1.241-0.499,1.842-1.909,1.343-3.15
			C31.268,17.138,29.857,16.536,28.617,17.035z M43.538,17.734c0-2.55-1.438-4.572-3.748-5.895
			c-0.475-1.312-1.363-4.089-2.008-5.979C36.51,2.137,33.33,0,29.059,0h-14.58c-4.271,0-7.45,2.137-8.723,5.861
			c-0.645,1.89-1.533,4.667-2.008,5.979C1.439,13.162,0,15.185,0,17.734c0,2.171,1.047,3.89,2.81,5.263l-0.004,2.87
			c0,4.555,3.704,8.259,8.257,8.259c2.502,0,4.849-1.152,6.398-3.048c2.506,0.46,6.096,0.463,8.617,0
			c1.548,1.896,3.896,3.048,6.397,3.048c4.553,0,8.257-3.704,8.257-8.259l-0.004-2.87C42.49,21.624,43.538,19.905,43.538,17.734z
			 M35.879,20.492l0.009,5.38c0,1.878-1.531,3.409-3.414,3.409c-2.763,0-3.128-1.953-3.088-3.791c-3.489,1.449-11.73,1.455-15.234,0
			c0.04,1.838-0.326,3.791-3.089,3.791c-1.882,0-3.413-1.531-3.413-3.409l0.009-5.38c0,0-2.359-0.707-2.359-2.758
			c0-1.956,2.294-2.609,2.294-2.609s1.192-3.144,2.747-7.698c0.218-0.639,0.882-2.582,4.139-2.582h14.58
			c3.257,0,3.921,1.943,4.139,2.582c1.555,4.555,2.747,7.698,2.747,7.698s2.294,0.653,2.294,2.609
			C38.239,19.785,35.879,20.492,35.879,20.492z"/>
	</g>
</g>
<path class="st0" d="M131.986,29.546c-3.772,0-4.569-2.586-4.569-2.586l-0.284,2.318h-4.254V5.11h4.953v7.191
	c1.153-1.652,2.772-2.167,4.712-2.167c5.588,0,7.689,4.587,7.689,9.634C140.232,22.012,139.762,29.546,131.986,29.546z
	 M131.366,13.987c-1.616,0-3.568,1.108-3.568,2.943v5.694c0,2.11,1.443,3.372,3.428,3.372c3.558,0,3.847-3.396,3.847-6.194
	C135.072,16.983,134.799,13.987,131.366,13.987z M116.274,27.453c-0.987,1.161-3.58,2.089-5.554,2.089
	c-2.934,0-6.397-1.26-6.397-5.599c0-7.456,11.466-6.986,11.466-6.986c0-2.502-0.578-3.336-2.841-3.336
	c-1.539,0-4.75,1.008-6.253,1.955l-1.556-3.527c2.423-1.182,5.223-2.139,8.225-2.139c3.971,0,7.377,1.208,7.377,6.631v8.479
	c0,0.965,0.551,1.441,1.179,1.809l-3.154,2.72C117.123,28.898,116.274,27.453,116.274,27.453z M115.789,20.069
	c-3.187,0-6.547,0.603-6.547,3.596c0,1.483,0.555,2.608,2.495,2.608c1.615,0,2.759-0.638,4.052-1.565V20.069z M95.449,25.288
	c2.092,0,3.687-0.951,5.173-2.204l3.2,3.096c-1.722,1.582-4.499,3.368-8.58,3.368c-3.952,0-11.249-2.159-11.249-12.452
	c0-9.225,6.658-11.984,11.385-11.984c3.96,0,7.08,2.374,8.28,3.569l-3.231,3.127c-1.354-1.423-2.374-2.383-5.049-2.383
	c-1.654,0-6.025,0.943-6.025,7.736C89.352,23.954,93.522,25.288,95.449,25.288z M68.592,21.486c0.104,2.726,1.764,4.258,4.677,4.258
	c3.032,0,5.3-1.622,5.3-1.622l1.768,3.138c0.725-0.505-2.378,2.288-7.379,2.288c-6.05,0-9.457-3.77-9.457-9.846
	c0-5.614,3.188-9.791,9.145-9.791c3.375,0,8.265,1.818,8.452,8.859c0.022,0.876,0,1.863,0,2.716H68.592z M72.714,13.606
	c-2.704,0-4.114,1.799-4.114,4.14h7.841C76.344,15.495,75.223,13.606,72.714,13.606z M54.141,26.127c0-0.574,0-21.014,0-21.014
	h5.239V23.7c0,0.862,0.566,1.38,1.334,1.38h2.252v4.198h-6.19C55.261,29.278,54.141,28.036,54.141,26.127z"/>
</svg>