<!-- Generator: Adobe Illustrator 21.0.0, SVG Export Plug-In  -->
<svg version="1.1"
	 xmlns="http://www.w3.org/2000/svg" xmlns:xlink="http://www.w3.org/1999/xlink" xmlns:a="http://ns.adobe.com/AdobeSVGViewerExtensions/3.0/"
	 x="0px" y="0px" width="18px" height="28px" viewBox="0 0 18 28" style="enable-background:new 0 0 18 28;" xml:space="preserve">
<style type="text/css">
	.st0{fill:#FFFFFF;}
</style>
<defs>
</defs>
<path class="st0" d="M18,9.459c0-5.446-4.442-9.865-9.749-9.43C4.256,0.372,0.917,3.515,0.172,7.623
	c-0.447,2.396,0,4.513,1.073,6.691l0,0L8.669,27.79c0.149,0.28,0.507,0.28,0.656,0l7.423-13.476l0,0
	C17.553,13.07,18,11.202,18,9.459z M8.997,13.567c-2.206,0-3.995-1.867-3.995-4.17s1.789-4.17,3.995-4.17s3.995,1.867,3.995,4.17
	S11.203,13.567,8.997,13.567z"/>
</svg>