<!-- Generator: Adobe Illustrator 21.0.0, SVG Export Plug-In  -->
<svg version="1.1"
	 xmlns="http://www.w3.org/2000/svg" xmlns:xlink="http://www.w3.org/1999/xlink" xmlns:a="http://ns.adobe.com/AdobeSVGViewerExtensions/3.0/"
	 x="0px" y="0px" width="134.626px" height="50px" viewBox="0 0 134.626 50" style="enable-background:new 0 0 134.626 50;"
	 xml:space="preserve">
<style type="text/css">
	.st0{fill:#5B93FC;}
	.st1{fill:#FFFFFF;}
</style>
<defs>
</defs>
<path class="st0" d="M109.626,50h-50c-13.75,0-25-11.25-25-25v0c0-13.75,11.25-25,25-25l50,0c13.75,0,25,11.25,25,25v0
	C134.626,38.75,123.376,50,109.626,50z"/>
<polygon class="st1" points="105.927,11.842 108.689,20.342 117.626,20.342 110.396,25.595 113.158,34.096 105.927,28.842 
	98.697,34.096 101.458,25.595 94.228,20.342 103.165,20.342 "/>
<g>
	<path class="st1" d="M65.328,16.285v2.518h-6.193v4.111c0.437-0.128,1.08-0.231,2.03-0.231c2.75,0,4.985,2.004,4.985,5.525
		c0,3.957-2.39,6.27-6.09,6.27c-1.85,0-3.289-0.488-4.137-0.745l0.206-2.75c0.899,0.462,1.85,0.874,3.34,0.874
		c2.159,0,3.392-1.464,3.392-3.494c0-1.799-1.105-3.341-3.623-3.341c-1.465,0-2.441,0.386-2.981,0.565v-9.302H65.328z"/>
	<path class="st1" d="M72.469,30.932l-1.953,6.373h-2.467l1.336-6.373H72.469z"/>
	<path class="st1" d="M80.948,16.028c4.651,0,5.653,4.805,5.653,9.225c0,4.419-1.002,9.225-5.653,9.225
		c-4.625,0-5.653-4.805-5.653-9.225C75.294,20.833,76.322,16.028,80.948,16.028z M80.948,32.062c2.03,0,2.467-2.853,2.467-6.81
		s-0.437-6.81-2.467-6.81c-2.004,0-2.467,2.853-2.467,6.81S78.943,32.062,80.948,32.062z"/>
</g>
<g>
	<path class="st1" d="M0,15.814h5.971v-5.578C5.971,4.79,8.07,0,16.667,0c3.609,0,5.642,0.59,6.759,0.788l-0.262,7.218
		c-0.724-0.329-1.774-0.524-2.69-0.524c-3.085,0-4.135,1.114-4.135,4.656v3.676h6.235v7.282h-6.235V50H5.971V23.097H0V15.814z"/>
</g>
</svg>