<!-- Generator: Adobe Illustrator 21.0.0, SVG Export Plug-In  -->
<svg version="1.1"
	 xmlns="http://www.w3.org/2000/svg" xmlns:xlink="http://www.w3.org/1999/xlink" xmlns:a="http://ns.adobe.com/AdobeSVGViewerExtensions/3.0/"
	 x="0px" y="0px" width="30px" height="50px" viewBox="0 0 30 50" style="enable-background:new 0 0 30 50;" xml:space="preserve">
<style type="text/css">
	.st0{fill:#FFFFFF;}
</style>
<defs>
</defs>
<path class="st0" d="M29.49,23.632l-1.327-12.474c-0.153-1.316-1.122-2.368-2.398-2.579l-3.878-0.632
	c-1.837-0.316-3.673-0.474-5.459-0.526V3.053h4.286c0.816,0,1.48-0.684,1.48-1.526S21.531,0,20.714,0H9.184
	c-0.816,0-1.48,0.684-1.48,1.526s0.663,1.526,1.48,1.526h4.286v4.368C11.633,7.474,9.796,7.632,8.01,7.947L4.133,8.579
	C2.857,8.79,1.888,9.842,1.735,11.158L0.408,23.632C0.102,26.211,0,28.842,0,31.474V37c0,1.632,1.276,2.947,2.857,2.947h2.194
	l-2.857,8c-0.306,0.789,0.102,1.684,0.867,1.947C3.214,49.947,3.418,50,3.571,50c0.612,0,1.173-0.368,1.378-1l3.214-9.053h13.673
	L25.051,49c0.204,0.632,0.816,1,1.378,1c0.153,0,0.357-0.053,0.51-0.105c0.765-0.316,1.173-1.158,0.867-1.947l-2.857-8h2.194
	C28.724,39.947,30,38.632,30,37v-5.526C29.949,28.842,29.796,26.211,29.49,23.632z M6.02,33.895c-1.173,0-2.143-1-2.143-2.211
	c0-1.211,0.969-2.211,2.143-2.211s2.143,1,2.143,2.211C8.163,32.895,7.194,33.895,6.02,33.895z M23.775,33.895
	c-1.173,0-2.143-1-2.143-2.211c0-1.211,0.969-2.211,2.143-2.211c1.173,0,2.143,1,2.143,2.211
	C25.918,32.895,24.949,33.895,23.775,33.895z M3.316,23.474l1.225-11.105h20.765l1.225,11.105H3.316z"/>
</svg>