<!-- Generator: Adobe Illustrator 21.0.0, SVG Export Plug-In  -->
<svg version="1.1"
	 xmlns="http://www.w3.org/2000/svg" xmlns:xlink="http://www.w3.org/1999/xlink" xmlns:a="http://ns.adobe.com/AdobeSVGViewerExtensions/3.0/"
	 x="0px" y="0px" width="28px" height="28px" viewBox="0 0 28 28" style="enable-background:new 0 0 28 28;" xml:space="preserve">
<style type="text/css">
	.st0{fill:#FFFFFF;}
</style>
<defs>
</defs>
<g>
	<path class="st0" d="M2.828,28h22.343C26.747,28,28,26.879,28,25.468V5.245c0-1.411-1.253-2.532-2.828-2.532h-3.879V1.085
		C21.293,0.47,20.768,0,20.081,0c-0.687,0-1.212,0.47-1.212,1.085v1.628H9.131V1.085C9.131,0.47,8.606,0,7.919,0
		S6.707,0.47,6.707,1.085v1.628H2.828C1.253,2.713,0,3.835,0,5.245v20.186C0,26.879,1.293,28,2.828,28z M25.212,25.829H2.828
		c-0.242,0-0.404-0.145-0.404-0.362V12.879h23.152v12.553C25.616,25.649,25.414,25.829,25.212,25.829z M2.828,4.884h3.879v2.351
		c0,0.615,0.525,1.085,1.212,1.085s1.212-0.47,1.212-1.085V4.884h9.778v2.351c0,0.615,0.525,1.085,1.212,1.085
		c0.687,0,1.212-0.47,1.212-1.085V4.884h3.879c0.242,0,0.404,0.145,0.404,0.362v5.463H2.424V5.245
		C2.424,5.065,2.626,4.884,2.828,4.884z"/>
</g>
</svg>