<!-- Generator: Adobe Illustrator 21.0.0, SVG Export Plug-In  -->
<svg version="1.1"
	 xmlns="http://www.w3.org/2000/svg" xmlns:xlink="http://www.w3.org/1999/xlink" xmlns:a="http://ns.adobe.com/AdobeSVGViewerExtensions/3.0/"
	 x="0px" y="0px" width="32px" height="54px" viewBox="0 0 32 54" style="enable-background:new 0 0 32 54;" xml:space="preserve">
<style type="text/css">
	.st0{fill:#FFFFFF;}
</style>
<defs>
</defs>
<g id="XMLID_1_">
	<g id="XMLID_3_">
		<path id="XMLID_4_" class="st0" d="M0,38.901c0.033-0.565,0.066-1.13,0.098-1.695c0.146-2.588,0.331-5.172,1.103-7.67
			c0.304-0.984,0.703-1.929,1.466-2.668c0.464-0.45,1.016-0.674,1.682-0.682c0.466-0.006,0.661,0.197,0.749,0.611
			c0.282,1.327,0.575,2.652,0.865,3.978c0.109,0.5,0.22,1,0.421,1.503c0.027-0.064,0.096-0.16,0.075-0.186
			c-0.231-0.286-0.112-0.596-0.057-0.889c0.706-3.812,1.42-7.623,2.134-11.434c0.025-0.136,0.067-0.269,0.113-0.452
			c1.048,0.184,2.087,0.362,2.88,1.145c0.102,0.101,0.116,0.31,0.134,0.472c0.313,2.864,0.624,5.729,0.929,8.594
			c0.154,1.446,0.292,2.894,0.438,4.342c0.015,0.149,0.035,0.298,0.053,0.446c0.035,0.007,0.07,0.013,0.106,0.02
			c0.172-0.618,0.407-1.226,0.505-1.855c0.317-2.03,0.611-4.064,0.865-6.103c0.341-2.739,0.626-5.486,1.779-8.047
			c0.109-0.242,0.231-0.478,0.34-0.701c1.055-0.065,1.754,0.618,2.549,1.074c0.067,0.038,0.084,0.197,0.088,0.301
			c0.042,1.374,0.074,2.748,0.114,4.122c0.055,1.864,0.113,3.727,0.175,5.591c0.054,1.611,0.114,3.221,0.175,4.831
			c0.087,2.297,0.177,4.593,0.266,6.89c0.003,0.065,0.015,0.13,0.025,0.211c0.426-0.243,0.251-0.606,0.255-0.917
			c0.018-1.554-0.067-3.116,0.059-4.661c0.282-3.454,1.034-6.83,1.927-10.176c1.364-5.108,3.096-10.1,4.85-15.086
			c1.097-3.119,2.148-6.255,3.2-9.39c0.092-0.275,0.21-0.34,0.473-0.341C31.179,0.081,31.525,0.03,31.885,0
			c0.282,1.104,0.002,2.103-0.354,3.069c-0.387,1.051-0.817,2.094-1.317,3.097c-0.859,1.725-1.383,3.551-1.828,5.407
			c-1.136,4.738-2.361,9.457-3.385,14.219c-0.811,3.773-1.399,7.594-2.036,11.402c-0.17,1.018-0.164,2.065-0.228,3.1
			c-0.168,2.707-0.155,5.431-0.764,8.096c-0.106,0.464-0.257,0.918-0.372,1.38c-0.061,0.247-0.201,0.297-0.434,0.259
			c-0.738-0.121-1.477-0.235-2.218-0.339c-0.255-0.035-0.386-0.158-0.48-0.395c-0.652-1.655-1.115-3.367-1.246-5.131
			c-0.161-2.165-0.212-4.34-0.246-6.511c-0.03-1.865,0.062-3.732,0.039-5.598c-0.012-0.99-0.153-1.978-0.239-2.966
			c-0.003-0.036-0.039-0.068-0.083-0.141c-0.041,0.08-0.105,0.156-0.089,0.181c0.206,0.315,0.074,0.605-0.03,0.912
			c-0.669,1.97-1.065,3.999-1.353,6.056c-0.366,2.623-0.425,5.256-0.302,7.89c0.092,1.985,0.373,3.953,0.965,5.864
			c0.041,0.133,0.067,0.27,0.103,0.417c-1.072,0.096-2.062-0.201-3.046-0.506c-0.105-0.033-0.209-0.227-0.226-0.357
			c-0.357-2.69-0.7-5.382-1.049-8.073c-0.33-2.538-0.665-5.075-0.996-7.612c-0.239-1.833-0.474-3.666-0.712-5.499
			c-0.025-0.193-0.058-0.386-0.092-0.609c-0.398,0.203-0.325,0.553-0.32,0.867c0.015,0.925,0.063,1.851,0.057,2.776
			c-0.014,2.078-0.03,4.156-0.09,6.232c-0.058,2.044-0.166,4.088-0.262,6.131c-0.068,1.44-0.155,2.88-0.235,4.348
			c-0.762,0.095-1.477-0.075-2.186-0.246c-1.091-0.263-1.061-0.279-1.224-1.385c-0.327-2.215-0.685-4.426-1.032-6.638
			c-0.388-2.474-0.779-4.948-1.169-7.421c-0.028-0.176-0.061-0.352-0.192-0.548c-0.049,0.112-0.132,0.22-0.143,0.336
			c-0.261,2.63-0.534,5.258-0.757,7.891c-0.056,0.665,0.042,1.343,0.078,2.015c0.051,0.95,0.112,1.9,0.167,2.851
			c0.109,1.886,0.22,3.771,0.323,5.658c0.047,0.868,0.073,1.736,0.115,2.604c0.015,0.307,0.046,0.613,0.069,0.92
			c-0.085,0-0.17,0-0.255,0c-0.634-0.09-1.267-0.189-1.902-0.265c-0.251-0.03-0.397-0.071-0.411-0.385
			c-0.054-1.171-0.169-2.339-0.218-3.51c-0.085-2.012-0.136-4.026-0.206-6.038C0.069,43.686,0.025,43.571,0,43.456
			C0,41.938,0,40.419,0,38.901z"/>
	</g>
</g>
</svg>