<!-- Generator: Adobe Illustrator 21.0.0, SVG Export Plug-In  -->
<svg version="1.1"
	 xmlns="http://www.w3.org/2000/svg" xmlns:xlink="http://www.w3.org/1999/xlink" xmlns:a="http://ns.adobe.com/AdobeSVGViewerExtensions/3.0/"
	 x="0px" y="0px" width="28px" height="28px" viewBox="0 0 28 28" style="enable-background:new 0 0 28 28;" xml:space="preserve">
<style type="text/css">
	.st0{fill:#FFFFFF;}
</style>
<defs>
</defs>
<g>
	<path class="st0" d="M0,16.856C0,7.254,8.071,0,16.64,0C23.869,0,28,4.38,28,10.372c0,6.834-3.901,10.549-8.032,10.549
		c-1.799,0-3.099-1.017-3.443-2.664h-0.114c-1.187,1.331-2.716,2.347-4.399,2.347c-2.333,0-4.399-1.716-4.399-4.73
		c0-4.136,3.367-8.341,7.498-8.341c1.185,0,2.141,0.631,2.792,1.786h0.076l0.497-1.507h1.951l-1.912,7.605
		c-0.536,2.173-0.039,3.645,1.989,3.645c2.485,0,5.393-2.979,5.393-8.341c0-5.082-2.945-8.937-9.524-8.937
		C9.411,1.786,2.18,8.13,2.18,16.47c0,6.238,4.438,9.708,9.792,9.708c1.875,0,3.672-0.455,5.164-1.297l0.88,1.612
		C15.951,27.509,13.847,28,11.743,28C5.164,28,0,23.935,0,16.856z M15.989,16.61l1.378-5.641c-0.688-1.191-1.416-1.578-2.257-1.578
		c-3.023,0-5.164,3.506-5.164,6.239c0,2.102,1.109,3.119,2.601,3.119C13.656,18.749,14.804,18.083,15.989,16.61z"/>
</g>
</svg>