<!-- Generator: Adobe Illustrator 21.0.0, SVG Export Plug-In  -->
<svg version="1.1"
	 xmlns="http://www.w3.org/2000/svg" xmlns:xlink="http://www.w3.org/1999/xlink" xmlns:a="http://ns.adobe.com/AdobeSVGViewerExtensions/3.0/"
	 x="0px" y="0px" width="48px" height="28px" viewBox="0 0 48 28" style="enable-background:new 0 0 48 28;" xml:space="preserve">
<style type="text/css">
	.st0{fill:#FFFFFF;}
</style>
<defs>
</defs>
<path class="st0" d="M28.759,28H5.629C3.684,27.905,0,26.671,0,22.78c0-3.797,3.48-5.031,5.322-5.125l17.706-4.556
	c0-3.607,0-3.702,0-3.797c0.102-0.475,0.512-0.759,1.023-0.759c1.945,0,3.582-1.519,3.582-3.322s-1.638-3.322-3.582-3.322
	s-3.582,1.519-3.582,3.322c0,0.569-0.409,0.949-1.023,0.949s-1.023-0.38-1.023-0.949c0-2.847,2.559-5.22,5.629-5.22
	s5.629,2.373,5.629,5.22c0,2.563-2.047,4.746-4.606,5.125c0,0.475,0,1.329,0,2.753l17.603,4.556C44.623,17.749,48,18.983,48,22.78
	c0,3.892-3.582,5.22-5.527,5.22L28.759,28C28.759,28,28.759,28,28.759,28z M24.051,14.902l-18.32,4.651c-0.102,0-0.102,0-0.205,0
	c-0.307,0-3.48,0.285-3.48,3.227s3.275,3.322,3.582,3.322h36.844c0.307,0,3.582-0.38,3.582-3.322c0-3.037-3.377-3.227-3.48-3.227
	s-0.205,0-0.205,0L24.051,14.902z"/>
</svg>