<!-- Generator: Adobe Illustrator 21.0.0, SVG Export Plug-In  -->
<svg version="1.1"
	 xmlns="http://www.w3.org/2000/svg" xmlns:xlink="http://www.w3.org/1999/xlink" xmlns:a="http://ns.adobe.com/AdobeSVGViewerExtensions/3.0/"
	 x="0px" y="0px" width="75px" height="50px" viewBox="0 0 75 50" style="enable-background:new 0 0 75 50;" xml:space="preserve">
<style type="text/css">
	.st0{fill:#FFFFFF;}
</style>
<defs>
</defs>
<path class="st0" d="M0,0v50h75V0C75,0,0,0,0,0z M51.523,33.099l-1.732,2.877l17.536,10.659H43.047v-16.06h28.608v14.759
	L51.523,33.099z M23.477,16.903l1.732-2.878L7.674,3.365h24.279v16.061H3.347V4.665L23.477,16.903z M23.477,33.099L3.347,45.335
	V30.576h28.607v16.06H7.674L25.21,35.977L23.477,33.099z M3.347,27.212V22.79H35.3V3.364h4.4v19.425h31.954v4.423H39.7v19.424h-4.4
	V27.212H3.347z M71.653,19.425H43.047V3.364h24.28L49.791,14.023l1.732,2.878L71.654,4.664v14.761H71.653z"/>
</svg>