<!-- Generator: Adobe Illustrator 21.0.0, SVG Export Plug-In  -->
<svg version="1.1"
	 xmlns="http://www.w3.org/2000/svg" xmlns:xlink="http://www.w3.org/1999/xlink" xmlns:a="http://ns.adobe.com/AdobeSVGViewerExtensions/3.0/"
	 x="0px" y="0px" width="18px" height="28px" viewBox="0 0 18 28" style="enable-background:new 0 0 18 28;" xml:space="preserve">
<style type="text/css">
	.st0{fill:#FFFFFF;}
</style>
<defs>
</defs>
<g>
	<path class="st0" d="M0,1.124C0,0.503,0.539,0,1.202,0h15.596C17.462,0,18,0.498,18,1.124v25.753C18,27.497,17.461,28,16.798,28
		H1.202C0.538,28,0,27.502,0,26.876V1.124z M1.2,2.163v20.314c0,0.372,0.325,0.678,0.726,0.678h14.147
		c0.4,0,0.726-0.304,0.726-0.678V2.163c0-0.372-0.325-0.678-0.726-0.678H1.926C1.526,1.485,1.2,1.788,1.2,2.163z M9.2,27.253
		c0.884,0,1.6-0.669,1.6-1.493s-0.716-1.493-1.6-1.493s-1.6,0.669-1.6,1.493S8.316,27.253,9.2,27.253z"/>
</g>
</svg>