<!-- Generator: Adobe Illustrator 21.0.0, SVG Export Plug-In  -->
<svg version="1.1"
	 xmlns="http://www.w3.org/2000/svg" xmlns:xlink="http://www.w3.org/1999/xlink" xmlns:a="http://ns.adobe.com/AdobeSVGViewerExtensions/3.0/"
	 x="0px" y="0px" width="74px" height="24.667px" viewBox="0 0 74 24.667" style="enable-background:new 0 0 74 24.667;"
	 xml:space="preserve">
<style type="text/css">
	.st0{fill:#E41D1E;}
	.st1{fill:#FFFFFF;}
</style>
<defs>
</defs>
<path class="st0" d="M69.889,0H4.111c0,2.27-1.841,4.111-4.111,4.111v16.444c2.271,0,4.111,1.841,4.111,4.111h65.778
	c0-2.271,1.841-4.111,4.111-4.111V4.111C71.73,4.111,69.889,2.27,69.889,0z"/>
<g>
	<path class="st1" d="M10.95,13.99c0.304,0.23,0.627,0.417,0.968,0.561c0.341,0.144,0.668,0.216,0.98,0.216
		c0.37,0,0.627-0.049,0.771-0.148c0.144-0.099,0.216-0.238,0.216-0.419c0-0.099-0.025-0.181-0.074-0.247
		c-0.049-0.066-0.123-0.127-0.222-0.185c-0.099-0.057-0.22-0.113-0.364-0.166c-0.144-0.053-0.311-0.113-0.5-0.179l-0.999-0.419
		c-0.23-0.082-0.448-0.191-0.654-0.327c-0.206-0.136-0.385-0.296-0.537-0.481c-0.152-0.185-0.273-0.397-0.364-0.635
		c-0.091-0.238-0.136-0.501-0.136-0.789c0-0.345,0.074-0.668,0.222-0.968c0.148-0.3,0.356-0.563,0.623-0.789
		c0.267-0.226,0.588-0.405,0.962-0.536c0.374-0.131,0.791-0.197,1.252-0.197c0.477,0,0.954,0.086,1.431,0.259
		c0.477,0.173,0.913,0.444,1.307,0.814l-1.061,1.332c-0.288-0.189-0.559-0.333-0.814-0.432c-0.255-0.099-0.543-0.148-0.864-0.148
		c-0.608,0-0.913,0.181-0.913,0.543c0,0.189,0.109,0.333,0.327,0.432c0.218,0.099,0.528,0.222,0.931,0.37l0.925,0.382
		c0.543,0.197,0.96,0.473,1.252,0.826c0.292,0.354,0.438,0.81,0.438,1.369c0,0.337-0.07,0.662-0.21,0.974
		c-0.14,0.313-0.345,0.586-0.617,0.82c-0.271,0.234-0.606,0.421-1.005,0.561c-0.399,0.14-0.857,0.21-1.375,0.21
		c-0.526,0-1.063-0.092-1.609-0.277c-0.547-0.185-1.046-0.475-1.499-0.87L10.95,13.99z"/>
	<path class="st1" d="M20.299,16.592c-0.485,0-0.929-0.095-1.332-0.284c-0.403-0.189-0.748-0.463-1.036-0.82
		c-0.288-0.358-0.512-0.797-0.672-1.32c-0.16-0.522-0.24-1.112-0.24-1.77c0-0.658,0.08-1.244,0.24-1.758
		c0.16-0.514,0.384-0.945,0.672-1.295c0.288-0.349,0.633-0.615,1.036-0.796C19.37,8.37,19.814,8.28,20.299,8.28
		s0.929,0.091,1.332,0.271c0.403,0.181,0.748,0.448,1.036,0.802c0.288,0.354,0.512,0.785,0.672,1.295
		c0.16,0.51,0.24,1.094,0.24,1.751c0,0.658-0.08,1.248-0.24,1.77c-0.16,0.522-0.385,0.962-0.672,1.32
		c-0.288,0.358-0.633,0.631-1.036,0.82C21.228,16.498,20.784,16.592,20.299,16.592z M20.299,14.767c0.345,0,0.617-0.212,0.814-0.635
		c0.198-0.423,0.296-1.001,0.296-1.733s-0.099-1.297-0.296-1.696c-0.197-0.399-0.469-0.598-0.814-0.598
		c-0.345,0-0.617,0.199-0.814,0.598c-0.197,0.399-0.296,0.964-0.296,1.696s0.099,1.309,0.296,1.733
		C19.682,14.556,19.954,14.767,20.299,14.767z"/>
	<path class="st1" d="M25.183,8.428h2.121v6.241h3.416v1.776h-5.538V8.428z"/>
	<path class="st1" d="M32.114,8.428h2.257c0.575,0,1.102,0.074,1.579,0.222c0.477,0.148,0.888,0.382,1.233,0.703
		c0.345,0.321,0.615,0.732,0.808,1.233c0.193,0.502,0.29,1.106,0.29,1.813c0,0.707-0.095,1.316-0.284,1.825
		c-0.189,0.51-0.454,0.929-0.796,1.258c-0.341,0.329-0.742,0.572-1.202,0.728c-0.461,0.156-0.962,0.234-1.505,0.234h-2.38V8.428z
		 M34.26,14.742c0.255,0,0.495-0.035,0.721-0.105c0.226-0.07,0.421-0.191,0.586-0.364c0.164-0.173,0.296-0.411,0.395-0.715
		c0.099-0.304,0.148-0.691,0.148-1.159c0-0.469-0.049-0.851-0.148-1.147c-0.099-0.296-0.23-0.526-0.395-0.691
		c-0.165-0.164-0.36-0.277-0.586-0.339s-0.467-0.093-0.721-0.093h-0.025v4.613H34.26z"/>
	<path class="st1" d="M46.198,16.592c-0.485,0-0.929-0.095-1.332-0.284c-0.403-0.189-0.748-0.463-1.036-0.82
		c-0.288-0.358-0.512-0.797-0.672-1.32c-0.16-0.522-0.24-1.112-0.24-1.77c0-0.658,0.08-1.244,0.24-1.758
		c0.16-0.514,0.384-0.945,0.672-1.295c0.288-0.349,0.633-0.615,1.036-0.796c0.403-0.181,0.847-0.271,1.332-0.271
		s0.929,0.091,1.332,0.271c0.403,0.181,0.748,0.448,1.036,0.802c0.288,0.354,0.512,0.785,0.672,1.295
		c0.16,0.51,0.24,1.094,0.24,1.751c0,0.658-0.08,1.248-0.24,1.77c-0.16,0.522-0.385,0.962-0.672,1.32
		c-0.288,0.358-0.633,0.631-1.036,0.82C47.128,16.498,46.684,16.592,46.198,16.592z M46.198,14.767c0.345,0,0.617-0.212,0.814-0.635
		c0.198-0.423,0.296-1.001,0.296-1.733s-0.099-1.297-0.296-1.696c-0.197-0.399-0.469-0.598-0.814-0.598
		c-0.345,0-0.617,0.199-0.814,0.598c-0.197,0.399-0.296,0.964-0.296,1.696s0.099,1.309,0.296,1.733
		C45.582,14.556,45.853,14.767,46.198,14.767z"/>
	<path class="st1" d="M50.614,8.428h2.121v5.155c0,0.345,0.063,0.629,0.191,0.851c0.127,0.222,0.36,0.333,0.697,0.333
		c0.345,0,0.584-0.111,0.715-0.333c0.132-0.222,0.198-0.506,0.198-0.851V8.428h2.047v4.909c0,0.502-0.055,0.952-0.167,1.351
		c-0.111,0.399-0.286,0.74-0.524,1.024c-0.239,0.284-0.545,0.502-0.919,0.654c-0.374,0.152-0.824,0.228-1.351,0.228
		s-0.979-0.076-1.357-0.228c-0.378-0.152-0.691-0.37-0.937-0.654c-0.247-0.284-0.428-0.625-0.543-1.024
		c-0.115-0.399-0.173-0.849-0.173-1.351V8.428z"/>
	<path class="st1" d="M59.938,10.204h-2.306V8.428h6.734v1.776h-2.306v6.241h-2.121V10.204z"/>
</g>
</svg>