<!-- Generator: Adobe Illustrator 19.0.0, SVG Export Plug-In  -->
<svg version="1.1"
	 xmlns="http://www.w3.org/2000/svg" xmlns:xlink="http://www.w3.org/1999/xlink" xmlns:a="http://ns.adobe.com/AdobeSVGViewerExtensions/3.0/"
	 x="0px" y="0px" width="150.752px" height="336.956px" viewBox="0 0 150.752 336.956"
	 style="enable-background:new 0 0 150.752 336.956;" xml:space="preserve">
<style type="text/css">
	.st0{fill-rule:evenodd;clip-rule:evenodd;fill:#1E1A2E;}
</style>
<defs>
</defs>
<g>
	<g>
		<g>
			<line class="st0" x1="36.401" y1="208.645" x2="36.374" y2="208.833"/>
			<line class="st0" x1="36.401" y1="208.645" x2="36.374" y2="208.833"/>
		</g>
		<g>
			<path class="st0" d="M90.021,254.359c0,0-10.458-3.967-17.479-4.741c-2.407-0.266-4.009-0.31-6.199-0.353
				c-2.271,0.012-4.117-0.15-6.252,0.085c-1.464,0.022-13.046-3.194-18.149-10.42c-4.212-5.964-6.54-13.273-6.741-22.102
				c0.121-11.678,4.42-21.52,12.895-29.528c8.476-8.007,18.624-10.121,33.996-10.455c24.034,1.742,28.158-9.99,31.446-13.14
				c0.357-0.342,2.097,0.305,2.05,0.87c-0.36,4.279-4.878,11.737-3.761,29.896c0.319,5.198,1.425,11.431,2.359,18.788l-5.168,1.182
				c-1.759-7.814-4.85-14.875-9.27-21.183c-4.422-6.307-9.711-9.57-19.748-9.94c-9.059,0.275-15.709,2.974-19.95,8.095
				c-4.241,5.121-6.339,11.01-6.295,17.667c0.084,8.415,2.753,15.219,8.009,20.414s10.654,9.975,20.077,14.489
				c6.385,3.14,11.741,6.12,18.897,10.626c19.452,12.25,21.586,29.746,21.744,38.557c-0.219,12.717-4.81,21.343-14.211,29.71
				c-4.538,4.04-10.613,8.085-18.616,10.211l4.164-11.632c0.755-0.649,0.979-0.856,1.853-1.755c4.907-5.037,7.389-11.92,7.449-20.65
				c-0.119-16.531-6.506-22.657-8.446-24.122C94.457,273.148,90.021,254.359,90.021,254.359z"/>
		</g>
		<g>
			<path class="st0" d="M89.091,265.17l-1.566-8.991c0,0-9.211-3.404-15.38-4.133c-2.594-0.307-4.323-0.334-6.685-0.381
				c-2.251,0.012-3.924,0.165-5.998,0.4c-6.535,0.72-12.476,2.409-17.823,5.066c-7.231,3.594-12.908,8.659-17.03,15.194
				c-4.122,6.535-6.223,14.241-6.301,23.116c-0.024,6.793,1.542,13.337,4.698,19.63c3.156,6.293,8.048,11.479,14.675,15.556
				c6.627,4.076,15.134,6.187,25.522,6.33c4.693-0.089,9.23-0.537,13.611-1.344c4.38-0.807,7.537-1.443,9.47-1.907
				c1.177-2.308,2.432-5.339,3.764-9.093c1.334-3.753,2.462-7.162,3.387-10.225l-3.637-1.255c-3.023,6.24-6.514,11.013-10.476,14.32
				c-3.961,3.307-9.084,4.975-15.366,5.003c-9.712-0.18-15.405-3.898-21.416-11.026c-6.011-7.129-9.105-16.649-9.283-28.562
				c0.009-6.458,1.232-12.46,3.671-18.008c2.438-5.548,6.041-10.035,10.807-13.463c4.766-3.428,8.477-5.129,15.468-5.23
				c6.735-0.052,12.082,1.401,16.041,4.361c3.959,2.96,6.767,7.738,8.422,14.336l3.246-0.851
				C90.791,272.957,89.311,266.789,89.091,265.17z"/>
		</g>
		<g>
			<path class="st0" d="M24.148,268.807c5.448-9.907,20.692-17.509,25.223-18.611c-3.306-1.591-16.897-10.529-16.162-31.344
				C30.012,240.533,23.683,269.651,24.148,268.807z"/>
		</g>
		<g>
			<path class="st0" d="M18.149,309.823l0.007-0.549l-0.089-0.408c-3.347,18.588-4.065,17.221-4.658,17.867
				c-1.933,2.104-6.402,3.29-13.409,3.557v5.051h40.8v-0.868C35.442,334.201,19.495,324.393,18.149,309.823z"/>
		</g>
		<g>
			<path class="st0" d="M112.13,161.459l1.385-1.947c3.367-5.242,5.102-11.782,5.209-19.619c-0.042-5.879-1.089-10.932-3.143-15.158
				c-2.054-4.226-8.998-17.807-19.475-17.807c-7.656,0-13.136-0.019-19.591,0h-44.74v5.051c4.404,0.207,13.264-1.493,15.348,4.791
				c1.343,4.051-0.456,11.424-0.491,14.257c0,0-5.641,33.181-11.696,74.478c1.61-8.222,6.079-15.249,12.531-21.344
				c2.907-2.747,6-4.799,9.454-6.326c6.584-2.922,14.442-3.911,24.542-4.129C103.573,175.307,108.869,165.491,112.13,161.459z
				 M63.504,123.398c-0.007-2.587,0-10.066,0-10.066c4.482-0.941,9.164-0.617,11.728-0.628c7.645-0.061,12.81,2.145,18.008,6.616
				c5.196,4.47,7.901,11.57,8.111,21.298c-0.106,7.61-1.505,13.558-4.195,17.845c-2.693,4.286-6.039,7.294-10.039,9.023
				c-4.001,1.728-25.754,1.856-26.963,1.368L63.504,123.398z"/>
		</g>
		<g>
			<polygon class="st0" points="74.694,22.504 74.904,21.875 77.414,21.875 77.625,22.504 78.985,20.934 77.52,14.026 
				74.485,14.026 73.124,20.934 			"/>
		</g>
		<g>
			<path class="st0" d="M74.798,13.188h2.511c0,0-0.553-1.466-1.256-1.465C75.352,11.723,74.798,13.188,74.798,13.188z"/>
		</g>
		<g>
			<path class="st0" d="M76.002,0l-0.524,11.304c0,0,0.288-0.261,0.655-0.261c0.219,0,0.497,0.261,0.497,0.261L76.002,0z"/>
		</g>
		<g>
			<path class="st0" d="M73.695,70.504l-6.28,28.05h17.584l-5.862-28.05H73.695z M66.557,64.014h-2.113v3.349l1.466,3.14
				l-6.49,28.05H56.07v2.301l1.432,4.298l37.413-0.009l1.428-4.289v-2.301h-3.349l-6.488-28.05l1.465-3.14v-3.349h-1.107H66.557z"/>
		</g>
		<g>
			<polygon class="st0" points="77.786,62.968 85.248,62.968 77.086,22.776 76.405,22.776 75.329,22.776 67.165,62.968 
				74.787,62.968 76.207,56.164 			"/>
		</g>
		<g>
			<path class="st0" d="M104.909,335.342h-3.98v-4.092c11.267-5.046,21.751-16.543,24.246-31.227
				c2.203-12.979-2.999-25.722-7.077-33.374c-2.857-15.742-5.559-29.224-8.584-49.821l5.233-1.047
				c8.699,59.101,21.28,108.282,22.387,109.487c1.932,2.104,6.61,4.336,13.618,4.605v5.469H104.909z"/>
		</g>
	</g>
</g>
</svg>