<!-- Generator: Adobe Illustrator 21.0.0, SVG Export Plug-In  -->
<svg version="1.1"
	 xmlns="http://www.w3.org/2000/svg" xmlns:xlink="http://www.w3.org/1999/xlink" xmlns:a="http://ns.adobe.com/AdobeSVGViewerExtensions/3.0/"
	 x="0px" y="0px" width="708.893px" height="219.11px" viewBox="0 0 708.893 219.11"
	 style="enable-background:new 0 0 708.893 219.11;" xml:space="preserve">
<style type="text/css">
	.st0{fill:#FFFFFF;}
</style>
<defs>
</defs>
<g id="XMLID_2_">
	<g id="XMLID_121_">
		<g id="XMLID_122_">
			<path id="XMLID_123_" class="st0" d="M580.289,157.844c0.132-2.293,0.266-4.586,0.394-6.879
				c0.586-10.501,1.331-20.985,4.431-31.122c1.221-3.992,2.826-7.827,5.892-10.827c1.866-1.826,4.083-2.735,6.758-2.768
				c1.874-0.023,2.658,0.801,3.012,2.481c1.133,5.386,2.312,10.762,3.475,16.142c0.439,2.03,0.884,4.059,1.693,6.1
				c0.109-0.258,0.384-0.649,0.301-0.753c-0.929-1.162-0.448-2.419-0.231-3.606c2.838-15.469,5.708-30.932,8.576-46.396
				c0.102-0.552,0.269-1.092,0.454-1.833c4.213,0.748,8.387,1.467,11.574,4.648c0.411,0.41,0.465,1.256,0.537,1.916
				c1.26,11.622,2.509,23.245,3.732,34.871c0.617,5.869,1.174,11.744,1.761,17.616c0.06,0.605,0.142,1.208,0.213,1.812
				c0.142,0.027,0.283,0.054,0.425,0.08c0.693-2.506,1.636-4.974,2.031-7.526c1.276-8.237,2.457-16.492,3.476-24.764
				c1.369-11.114,2.515-22.26,7.149-32.651c0.438-0.981,0.93-1.938,1.368-2.845c4.239-0.265,7.05,2.507,10.244,4.36
				c0.268,0.155,0.34,0.8,0.352,1.221c0.168,5.575,0.296,11.152,0.459,16.727c0.222,7.562,0.453,15.124,0.703,22.685
				c0.217,6.535,0.458,13.07,0.703,19.604c0.349,9.32,0.71,18.639,1.069,27.958c0.01,0.265,0.061,0.527,0.1,0.858
				c1.714-0.987,1.011-2.459,1.025-3.722c0.071-6.306-0.27-12.643,0.237-18.913c1.133-14.013,4.156-27.715,7.745-41.289
				c5.48-20.728,12.442-40.982,19.491-61.212c4.411-12.657,8.632-25.381,12.859-38.101c0.371-1.117,0.845-1.379,1.902-1.383
				c1.393-0.005,2.786-0.21,4.229-0.334c1.133,4.479,0.01,8.534-1.422,12.455c-1.557,4.266-3.283,8.495-5.291,12.565
				c-3.453,6.998-5.557,14.407-7.346,21.941c-4.567,19.225-9.49,38.374-13.605,57.696c-3.26,15.309-5.623,30.814-8.184,46.265
				c-0.685,4.13-0.657,8.381-0.915,12.579c-0.675,10.984-0.621,22.036-3.07,32.852c-0.426,1.882-1.034,3.723-1.493,5.599
				c-0.246,1.002-0.808,1.205-1.744,1.051c-2.966-0.49-5.936-0.955-8.912-1.374c-1.024-0.144-1.552-0.641-1.928-1.603
				c-2.622-6.715-4.48-13.662-5.008-20.819c-0.648-8.784-0.852-17.609-0.99-26.42c-0.119-7.569,0.249-15.145,0.157-22.715
				c-0.049-4.016-0.616-8.025-0.962-12.037c-0.012-0.145-0.157-0.278-0.334-0.573c-0.165,0.325-0.421,0.633-0.356,0.733
				c0.827,1.277,0.297,2.456-0.122,3.701c-2.69,7.995-4.282,16.224-5.436,24.573c-1.472,10.642-1.707,21.325-1.214,32.015
				c0.371,8.053,1.499,16.039,3.879,23.793c0.165,0.538,0.269,1.094,0.413,1.69c-4.307,0.388-8.286-0.817-12.242-2.054
				c-0.423-0.132-0.84-0.919-0.91-1.449c-1.435-10.915-2.811-21.838-4.216-32.757c-1.325-10.297-2.673-20.591-4.003-30.888
				c-0.96-7.437-1.904-14.876-2.86-22.314c-0.101-0.784-0.233-1.565-0.37-2.471c-1.599,0.825-1.307,2.243-1.287,3.517
				c0.06,3.754,0.254,7.509,0.229,11.262c-0.058,8.43-0.122,16.861-0.361,25.287c-0.235,8.296-0.665,16.586-1.054,24.877
				c-0.274,5.844-0.622,11.685-0.943,17.643c-3.063,0.386-5.937-0.305-8.784-0.998c-4.383-1.067-4.262-1.134-4.917-5.621
				c-1.313-8.989-2.752-17.959-4.147-26.935c-1.56-10.038-3.129-20.076-4.696-30.113c-0.112-0.716-0.243-1.428-0.772-2.222
				c-0.198,0.453-0.53,0.894-0.576,1.362c-1.051,10.67-2.145,21.336-3.044,32.019c-0.227,2.697,0.168,5.45,0.314,8.176
				c0.207,3.857,0.452,7.711,0.672,11.567c0.437,7.652,0.884,15.303,1.296,22.956c0.189,3.521,0.295,7.046,0.461,10.568
				c0.059,1.245,0.184,2.488,0.278,3.731c-0.342,0-0.685,0-1.027,0c-2.548-0.365-5.091-0.768-7.646-1.076
				c-1.009-0.122-1.594-0.29-1.652-1.561c-0.216-4.751-0.678-9.49-0.876-14.241c-0.34-8.164-0.547-16.334-0.828-24.501
				c-0.016-0.471-0.192-0.936-0.294-1.404C580.289,170.165,580.289,164.004,580.289,157.844z"/>
		</g>
	</g>
	<g id="XMLID_34_">
		<g>
			<path id="XMLID_61_" class="st0" d="M0.734,187.543c1.712-6.807,3.259-12.479,5.299-19.608c0.977-3.485,1.96-7.129,3.101-10.937
				c1.062-3.892,1.712-5.999,2.446-8.428l4.158-13.857l0.655-2.186h11.744c3.096,0,4.401,0.808,5.135,3.565
				c0.249,0.972,0.734,3.401,1.141,5.593c0.328,1.943,0.819,4.615,1.469,8.587c0.898,5.429,2.124,13.45,2.446,16.614
				c0.328,2.508,0.412,4.694,0.412,7.044c0,1.706-0.085,4.135-0.164,7.293c2.203-7.451,2.774-8.829,7.423-17.094
				c1.791-3.243,3.666-6.485,8.072-13.857c3.017-5.107,4.892-8.265,6.604-11.1c1.96-3.158,2.61-4.05,3.429-4.864
				c1.305-1.215,3.017-1.779,5.299-1.779h11.987l-0.243,2.186c-1.22,9.643-2.282,17.501-3.83,27.957
				c-1.469,9.643-2.938,18.636-4.079,24.873l-0.491,2.836H59.942l0.249-1.457c0.322-1.785,0.571-3.401,1.22-6.971
				c0.491-2.672,0.983-5.587,1.553-9.151c0.571-3.485,0.893-5.028,1.141-6.807c2.039-12.315,3.096-16.45,6.604-25.85h-0.328
				c-1.955,4.536-2.853,6.643-4.158,9.157c-1.469,3.079-4.406,8.587-6.361,12.072l-5.056,8.75
				c-3.017,5.186-7.259,12.965-9.869,17.828l-1.305,2.429H29.358l-0.243-2.35c-0.813-6.807-1.226-10.044-2.367-18.229l-1.22-8.671
				c-1.39-10.129-1.553-12.151-1.553-18.715v-2.271h-0.322c-0.571,9.643-1.226,13.535-4.57,25.85
				c-0.734,2.672-1.712,6.564-2.938,11.343c-1.22,4.7-2.282,8.671-3.017,11.586l-0.322,1.457H0L0.734,187.543z"/>
			<path id="XMLID_58_" class="st0" d="M109.23,146.542c12.643,0,20.8,8.022,20.8,20.5c0,7.378-2.774,14.179-7.508,18.557
				c-4.079,3.807-9.456,5.751-16.145,5.751c-13.134,0-21.127-7.615-21.127-20.257C85.25,156.671,95.119,146.542,109.23,146.542z
				 M106.699,181.792c6.525,0,11.01-6.078,11.01-14.829c0-6.807-3.259-10.857-8.807-10.857c-6.688,0-11.338,6.078-11.338,14.744
				C97.565,177.742,100.909,181.792,106.699,181.792z"/>
			<path id="XMLID_55_" class="st0" d="M155.733,147.192l-5.463,25.607c-0.164,1.13-0.328,2.35-0.328,3.322
				c0,3.485,2.282,5.429,6.446,5.429c4.649,0,7.095-2.435,8.315-7.943l5.632-26.415h11.987l-6.033,27.872
				c-1.147,5.429-3.022,8.993-6.039,11.586c-3.751,3.163-8.892,4.864-15.004,4.864c-10.852,0-17.619-5.107-17.619-13.371
				c0-1.294,0.164-3.079,0.491-4.372l5.706-26.579H155.733z"/>
			<g id="XMLID_52_">
				<g>
					<path class="st0" d="M179.809,188.599c6.768-11.75,15.252-25.2,25.121-39.95l0.977-1.457h12.394l0.328,1.542
						c1.141,5.508,2.367,11.908,3.587,19.201c1.226,7.05,1.796,10.937,3.017,20.421l0.249,2.022H213.41l-0.079-1.051
						c-0.164-1.056-0.249-2.107-0.412-3.243l-0.407-3.158l-0.079-0.893h-16.151l-0.571,0.972l-1.796,3.079
						c-0.571,0.972-1.22,2.028-1.875,3.243l-0.571,1.051h-12.722L179.809,188.599z M211.534,172.635l-1.469-15.8l-8.564,15.8
						H211.534z"/>
				</g>
			</g>
			<path id="XMLID_50_" class="st0" d="M241.321,147.355h36.126c-0.65,8.265-1.712,9.722-15.089,20.822
				c-4.158,3.565-5.378,4.536-8.722,7.536c-2.039,1.785-2.774,2.429-4.485,4.05l-0.734,0.65h22.67l-2.039,9.965h-38.493
				c0.486-8.265,1.627-9.801,15.089-21.308c6.118-5.107,9.705-8.265,13.456-11.671l0.65-0.644h-20.551L241.321,147.355z"/>
			<path id="XMLID_48_" class="st0" d="M287.988,147.355h29.929l-2.039,9.4h-18.105l-1.548,7.129h17.698l-2.039,9.4h-17.698
				l-1.633,7.694h18.84l-1.955,9.4h-30.669L287.988,147.355z"/>
			<path id="XMLID_45_" class="st0" d="M331.712,132.849l1.796-0.079c6.033-0.407,8.807-0.486,12.479-0.486
				c8.315,0,13.62,1.135,17.857,3.887c4.485,3,6.937,7.863,6.937,13.857c0,6.564-2.858,12.236-7.993,15.721
				c-4.813,3.401-10.439,4.7-19.902,4.7c-2.039,0-3.508-0.085-5.954-0.164l-4.242,20.094h-13.292L331.712,132.849z M339.135,159.185
				c2.938,0.079,4.401,0.079,6.197,0.079c3.587,0,6.033-0.486,7.909-1.537c2.367-1.299,3.836-3.971,3.836-7.05
				c0-5.107-3.344-7.779-10.033-7.779c-1.056,0-2.039,0-4.485,0.158L339.135,159.185z"/>
			<path id="XMLID_42_" class="st0" d="M380.424,147.271c4.073-0.243,7.988-0.401,10.682-0.401c6.525,0,11.089,0.808,14.518,2.672
				c3.83,2.028,6.118,6.157,6.118,10.937c0,6.485-3.593,10.857-10.603,13.128c3.344,5.35,7.909,11.507,11.908,16.371l0.407,0.401
				h-14.275c-0.65-0.893-0.813-1.215-1.712-2.508l-1.469-2.192c-1.712-2.593-4.322-6.965-6.197-10.372l-0.328-0.565
				c-0.243,0.079-0.65,0.079-0.65,0.079c-0.734,0-1.226-0.079-2.446-0.158l-3.344,15.716h-11.829L380.424,147.271z M388.005,166.15
				c1.875,0.085,2.938,0.164,4.079,0.164c5.384,0,7.993-1.864,7.993-5.672c0-3.322-2.446-5.186-7.095-5.186
				c-0.655,0-1.384,0.164-2.774,0.407L388.005,166.15z"/>
			<path id="XMLID_39_" class="st0" d="M443.314,146.542c12.643,0,20.8,8.022,20.8,20.5c0,7.378-2.774,14.179-7.508,18.557
				c-4.079,3.807-9.457,5.751-16.145,5.751c-13.134,0-21.127-7.615-21.127-20.257C419.334,156.671,429.203,146.542,443.314,146.542z
				 M440.784,181.792c6.525,0,11.01-6.078,11.01-14.829c0-6.807-3.259-10.857-8.807-10.857c-6.688,0-11.338,6.078-11.338,14.744
				C431.649,177.742,434.993,181.792,440.784,181.792z"/>
			<path id="XMLID_36_" class="st0" d="M478.237,147.271c4-0.322,7.338-0.401,10.36-0.401c9.456,0,15.574,1.7,20.224,5.587
				c4,3.485,6.197,8.592,6.197,14.507c0,8.428-4.073,15.557-11.01,19.529c-5.056,2.836-11.496,4.05-21.935,4.05
				c-3.672,0-6.852-0.079-11.665-0.407l-1.305-0.079L478.237,147.271z M483.129,180.335l1.062,0.079
				c1.633,0.079,2.853,0.164,3.751,0.164c9.541,0,14.761-4.785,14.761-13.292c0-6.886-3.994-10.451-11.744-10.451
				c-0.813,0-1.548,0-2.853,0L483.129,180.335z"/>
		</g>
	</g>
</g>
</svg>